# This file uses centimeters as units for non-parametric coordinates.

g default
v 1.403431 2.704121 -2.436585
v -1.403430 2.897670 -2.436585
v -2.806861 2.994445 -0.000000
v -1.403431 2.897670 2.436585
v 1.403430 2.704122 2.436585
v 2.806861 2.607347 -0.000000
v 1.312181 4.120517 -2.110144
v -1.118632 4.288136 -2.110145
v -2.334038 4.371944 -0.000000
v -1.118632 4.288136 2.110144
v 1.312181 4.120517 2.110145
v 2.527587 4.036708 0.000000
v 0.951395 4.914184 -1.392158
v -0.652323 5.024769 -1.392159
v -1.454182 5.080062 -0.000000
v -0.652323 5.024769 1.392159
v 0.951395 4.914184 1.392159
v 1.753254 4.858891 0.000000
v 0.193549 5.607757 0.000000
vt 0.001873 0.330160
vt 0.207740 0.001992
vt 0.587556 0.018557
vt 0.766455 0.361608
vt 0.561464 0.687652
vt 0.179576 0.672585
vt 0.402045 0.345997
vt 0.134545 0.330945
vt 0.274703 0.120013
vt 0.528356 0.135466
vt 0.641330 0.358713
vt 0.502686 0.568134
vt 0.254191 0.559604
vt 0.313564 0.464128
vt 0.242773 0.336853
vt 0.329939 0.218229
vt 0.472455 0.224618
vt 0.536672 0.354614
vt 0.457960 0.476596
vn 0.499624 0.224982 -0.836516
vn -0.464014 0.291430 -0.836516
vn -0.425938 0.443140 -0.788799
vn 0.482731 0.380483 -0.788799
vn -0.945833 0.324654 -0.000000
vn -0.880272 0.474469 -0.000000
vn -0.464014 0.291430 0.836516
vn -0.425938 0.443140 0.788799
vn 0.499623 0.224982 0.836516
vn 0.482731 0.380483 0.788799
vn 0.981442 0.191758 0.000000
vn 0.937066 0.349154 0.000000
vn -0.248838 0.812737 -0.526819
vn 0.358038 0.770890 -0.526819
vn -0.552276 0.833661 -0.000000
vn -0.248838 0.812737 0.526818
vn 0.358038 0.770890 0.526818
vn 0.661476 0.749966 0.000000
vn 0.068792 0.997631 0.000000
s 1
g pSphere1 treeNew_A pSphere2
f 1/1/1 2/2/2 8/9/3 7/8/4
f 2/2/2 3/3/5 9/10/6 8/9/3
f 3/3/5 4/4/7 10/11/8 9/10/6
f 4/4/7 5/5/9 11/12/10 10/11/8
f 5/5/9 6/6/11 12/13/12 11/12/10
f 6/6/11 1/1/1 7/8/4 12/13/12
f 7/8/4 8/9/3 14/16/13 13/15/14
f 8/9/3 9/10/6 15/17/15 14/16/13
f 9/10/6 10/11/8 16/18/16 15/17/15
f 10/11/8 11/12/10 17/19/17 16/18/16
f 11/12/10 12/13/12 18/14/18 17/19/17
f 12/13/12 7/8/4 13/15/14 18/14/18
f 13/15/14 14/16/13 19/7/19
f 14/16/13 15/17/15 19/7/19
f 15/17/15 16/18/16 19/7/19
f 16/18/16 17/19/17 19/7/19
f 17/19/17 18/14/18 19/7/19
f 18/14/18 13/15/14 19/7/19
g default
v 0.451959 0.000000 -0.506456
v -0.444066 0.000000 -0.506456
v -0.690637 0.000000 -0.107669
v -0.292403 0.000000 0.506456
v 0.292403 0.000000 0.506456
v 0.584805 0.000000 0.000000
v -0.092878 4.881360 -0.254761
v -0.385569 4.851874 -0.254761
v -0.531914 4.837129 -0.000000
v -0.385569 4.851874 0.254761
v -0.092878 4.881360 0.254761
v 0.053467 4.896105 -0.000000
v -0.123510 1.554395 0.314185
v -0.257442 1.532655 -0.000000
v -0.123510 1.554395 -0.336448
v 0.350495 1.597874 -0.489171
v 0.523850 1.619613 0.000000
v 0.308064 1.597873 0.375645
v 0.278012 0.542918 0.293279
v -0.278012 0.592021 0.481530
v -0.552093 0.571746 0.063326
v -0.218986 0.485083 -0.395158
v 0.303960 0.352475 -0.394912
v 0.470095 0.548583 0.045885
v 0.292403 0.038112 -1.131083
v -0.380893 0.038112 -0.963235
v -0.278012 0.336854 -0.938309
v 0.305987 0.267482 -0.900187
v -0.980387 0.038112 0.166696
v -0.687985 0.038112 0.734846
v -0.673594 0.336854 0.709920
v -0.951606 0.336854 0.228389
v 0.687985 0.000000 0.734846
v 0.980387 0.000000 0.228390
v 0.862953 0.325392 0.314833
v 0.673594 0.336854 0.598137
v 1.074827 0.000000 0.806252
v 1.235648 0.000000 0.650120
v 1.066407 0.104260 0.514423
v 0.999635 0.146036 0.663161
v -1.496719 -0.044479 0.678601
v -1.334445 -0.044479 0.959669
v -1.359894 0.097571 0.876230
v -1.441709 0.091728 0.764930
v -0.082179 -0.053463 -1.531623
v -0.307659 -0.053463 -1.531623
v -0.302110 0.061721 -1.522012
v -0.087728 0.061721 -1.522012
v 0.836807 0.041500 -0.567230
v 0.723658 0.310975 -0.481953
v 0.714822 0.070637 -1.044773
v 0.747701 0.301888 -0.930275
v 1.403888 -0.061291 -0.848206
v 1.380738 0.057179 -0.827833
v 1.327306 -0.074742 -1.022506
v 1.314742 0.041654 -1.010643
v -0.407409 2.899004 0.365108
v -0.546501 2.880172 0.075622
v -0.407409 2.899004 -0.226873
v -0.008766 2.936666 -0.316118
v 0.153362 2.955499 0.075622
v -0.033561 2.936666 0.401023
v 0.383017 2.199876 -0.254921
v 0.442412 2.208153 -0.101794
v 0.284609 2.435775 -0.201898
v 0.331451 2.440345 -0.076070
v 0.743481 2.689300 -0.538719
v 0.835203 2.736888 -0.344192
v 0.676748 2.836775 -0.377013
v 0.784591 2.812755 -0.311301
v 1.158277 3.419298 -0.419273
v 1.193036 3.468165 -0.266146
v 0.919197 3.509703 -0.366250
v 1.019419 3.499091 -0.265341
vt 0.110656 0.747254
vt 0.237653 0.828028
vt 0.233614 0.869824
vt 0.101761 0.929080
vt 0.061970 0.890114
vt 0.084083 0.773808
vt 0.620401 0.800719
vt 0.873814 0.467639
vt 0.846222 0.471514
vt 0.818460 0.474167
vt 0.790502 0.474192
vt 0.762700 0.471559
vt 0.735094 0.468067
vt 0.707254 0.465801
vt 0.795137 0.788590
vt 0.830645 0.788250
vt 0.867229 0.783049
vt 0.659325 0.781307
vt 0.607768 0.797190
vt 0.710801 0.783377
vt 0.751628 0.785213
vt 0.103884 0.850110
vt 0.137680 0.887296
vt 0.176328 0.869219
vt 0.185205 0.814092
vt 0.144067 0.770576
vt 0.583839 0.796503
vt 0.111417 0.818771
vt 0.213242 0.714554
vt 0.254660 0.790256
vt 0.226607 0.778139
vt 0.188751 0.736552
vt 0.230862 0.908535
vt 0.139542 0.955726
vt 0.154447 0.930946
vt 0.201467 0.907998
vt 0.026043 0.861737
vt 0.042578 0.784886
vt 0.059970 0.813043
vt 0.054552 0.843120
vt 0.002021 0.831349
vt 0.001873 0.809963
vt 0.025067 0.810668
vt 0.022476 0.826781
vt 0.228468 0.981900
vt 0.196417 0.998008
vt 0.200657 0.982674
vt 0.212990 0.978438
vt 0.268659 0.718601
vt 0.283764 0.739474
vt 0.272816 0.741741
vt 0.262377 0.727140
vt 0.135701 0.728226
vt 0.111474 0.712580
vt 0.184224 0.686424
vt 0.165477 0.702210
vt 0.123108 0.658099
vt 0.116077 0.648568
vt 0.137309 0.640210
vt 0.136735 0.650903
vt 0.792343 0.656394
vt 0.821400 0.656219
vt 0.851479 0.654238
vt 0.680818 0.649663
vt 0.889115 0.651216
vt 0.722492 0.653635
vt 0.757806 0.655964
vt 0.638691 0.661385
vt 0.580357 0.666392
vt 0.604473 0.672333
vt 0.616627 0.670904
vt 0.632707 0.728247
vt 0.591630 0.724570
vt 0.612329 0.729271
vt 0.624339 0.731272
vt 0.636075 0.804998
vt 0.793479 0.885545
vt 0.913895 0.774901
vt 0.837792 0.887227
vt 0.701710 0.727705
vt 0.706563 0.704183
vt 0.693361 0.703654
vt 0.688094 0.727897
vt 0.888540 0.882643
vt 0.938152 0.883507
vt 0.665371 0.900845
vt 0.740076 0.883090
vt 0.710389 0.882237
vt 0.649478 0.797713
vt 0.653804 0.662981
vt 0.652938 0.723689
vn 0.557628 0.369252 -0.743441
vn -0.901963 0.264738 -0.341140
vn -0.384288 0.814554 -0.434540
vn 0.257036 0.809288 -0.528191
vn -0.843380 0.410405 -0.346812
vn -0.687909 0.372352 -0.623005
vn -0.872919 0.456392 -0.172391
vn -0.530491 0.374090 -0.760681
vn -0.787769 0.337471 -0.515300
vn 0.089945 0.236807 0.967384
vn -0.201156 0.796732 0.569873
vn -0.607536 0.788879 -0.092578
vn 0.293778 0.141699 0.945313
vn -0.106024 0.262779 0.959013
vn 0.355227 0.207792 0.911393
vn -0.225545 0.331493 0.916101
vn 0.180823 0.670154 0.719859
vn 0.685885 0.727504 -0.017311
vn 0.715505 0.689219 -0.114148
vn 0.291764 0.745043 0.599821
vn 0.758284 0.305209 -0.576066
vn 0.927362 0.130562 0.350648
vn 0.600320 0.450969 -0.660487
vn 0.984443 0.145496 -0.098502
vn -0.998633 0.015405 -0.049952
vn -0.443562 -0.001921 0.896242
vn -0.545788 -0.034500 0.837212
vn -0.996437 -0.083360 0.012810
vn -0.535588 0.010702 -0.844412
vn -0.603161 -0.029300 -0.797081
vn 0.344801 0.005660 -0.938659
vn 0.258224 0.068043 -0.963686
vn 0.491493 0.053737 0.869222
vn 0.988628 0.049405 0.142036
vn 0.978385 0.135640 0.156090
vn 0.420339 0.077213 0.904076
vn -0.340693 0.900168 -0.271341
vn -0.936278 0.342719 -0.076990
vn 0.125469 0.927970 -0.350897
vn 0.588473 0.693197 0.416147
vn 0.657159 -0.036755 0.752856
vn 0.253818 0.337089 -0.906613
vn 0.350849 0.801524 -0.484215
vn -0.016023 0.720182 0.693600
vn 0.371511 0.130444 0.919219
vn -0.587699 0.766825 -0.258048
vn -0.648972 0.328440 -0.686267
vn 0.625003 0.686070 -0.372397
vn 0.647709 0.339259 -0.682185
vn -0.099985 0.688731 0.718089
vn -0.324162 0.388721 0.862447
vn 0.423497 0.523776 -0.739127
vn 0.337430 -0.146406 0.929896
vn 0.274693 0.834143 0.478277
vn 0.168909 0.913518 -0.370075
vn 0.034463 0.488688 -0.871778
vn -0.506594 0.056179 0.860353
vn -0.999840 0.014374 -0.010663
vn -0.527357 0.002144 -0.849641
vn 0.506917 0.030351 -0.861460
vn 0.998244 0.058609 0.008573
vn 0.499605 0.075646 0.862944
vn 0.749801 0.061611 -0.658789
vn 0.994527 -0.019157 0.102707
vn 0.447590 0.482575 -0.752851
vn 0.818451 0.420216 0.391862
vn 0.148279 -0.279366 -0.948666
vn 0.845343 -0.434831 0.310350
vn -0.734339 0.438206 -0.518384
vn -0.075716 0.153679 0.985216
vn 0.493241 -0.192983 -0.848217
vn 0.762341 -0.431283 0.482526
vn -0.828180 0.403694 -0.388779
vn -0.230809 0.009389 0.972954
s 1
g treeNew_A pCylinder1
f 64/68/20 65/69/21 66/70/22 67/71/23
f 21/21/24 22/22/25 40/43/26 41/44/27
f 60/64/28 61/65/29 62/66/30 63/67/31
f 23/23/32 24/24/33 38/41/34 39/42/35
f 56/60/36 57/61/37 58/62/38 59/63/39
f 25/25/40 20/20/41 42/45/42 43/47/43
f 33/35/44 32/34/45 76/80/46 77/81/47
f 34/36/48 33/35/44 77/81/47 78/82/49
f 35/97/50 34/36/48 78/82/49 79/84/51
f 37/40/52 36/39/53 80/85/54 81/86/55
f 32/34/45 37/40/52 81/86/55 76/80/46
f 39/96/35 38/106/34 37/40/52 32/34/45
f 40/98/26 39/96/35 32/34/45 33/35/44
f 41/103/27 40/98/26 33/35/44 34/36/48
f 42/104/42 41/103/27 34/36/48 35/97/50
f 43/107/43 42/105/42 35/37/50 36/39/53
f 38/106/34 43/107/43 36/39/53 37/40/52
f 21/21/24 41/44/27 46/50/56 45/49/57
f 41/44/27 42/45/42 47/51/58 46/50/56
f 73/76/59 72/77/60 74/78/61 75/79/62
f 23/23/32 39/42/35 50/54/63 49/53/64
f 39/42/35 40/43/26 51/55/65 50/54/63
f 40/43/26 22/22/25 48/52/66 51/55/65
f 25/25/40 43/47/43 54/58/67 53/57/68
f 43/47/43 38/41/34 55/59/69 54/58/67
f 38/41/34 24/24/33 52/56/70 55/59/69
f 53/57/68 54/58/67 58/62/38 57/61/37
f 54/58/67 55/59/69 59/63/39 58/62/38
f 55/59/69 52/56/70 56/60/36 59/63/39
f 49/53/64 50/54/63 62/66/30 61/65/29
f 50/54/63 51/55/65 63/67/31 62/66/30
f 51/55/65 48/52/66 60/64/28 63/67/31
f 45/49/57 46/50/56 66/70/22 65/69/21
f 46/50/56 47/51/58 67/71/23 66/70/22
f 47/51/58 44/48/71 64/68/20 67/71/23
f 42/45/42 20/20/41 68/73/72 69/72/73
f 44/48/71 47/51/58 71/75/74 70/74/75
f 47/51/58 42/45/42 69/72/73 71/75/74
f 69/72/73 68/73/72 72/77/60 73/76/59
f 70/74/75 71/75/74 75/79/62 74/78/61
f 71/75/74 69/72/73 73/76/59 75/79/62
f 77/81/47 76/80/46 29/30/76 28/29/77
f 78/82/49 77/81/47 28/29/77 27/28/78
f 79/84/51 78/82/49 27/28/78 26/27/79
f 80/85/54 79/83/51 26/33/79 31/32/80
f 81/86/55 80/85/54 31/32/80 30/31/81
f 76/80/46 81/86/55 30/31/81 29/30/76
f 36/39/53 35/37/50 82/102/82 83/99/83
f 35/37/50 79/83/51 84/101/84 82/102/82
f 79/83/51 80/85/54 85/100/85 84/101/84
f 80/85/54 36/39/53 83/99/83 85/100/85
f 83/87/83 82/109/82 86/110/86 87/91/87
f 82/88/82 84/89/84 88/93/88 86/92/86
f 84/89/84 85/90/85 89/94/89 88/93/88
f 85/90/85 83/87/83 87/91/87 89/94/89
f 87/91/87 86/110/86 90/108/90 91/95/91
f 86/92/86 88/93/88 92/38/92 90/46/90
f 88/93/88 89/94/89 93/26/93 92/38/92
f 89/94/89 87/91/87 91/95/91 93/26/93
g default
v -0.517651 1.598558 -2.017058
v -1.431193 1.443691 -1.610028
v -1.556650 1.510505 -0.608023
v -0.768564 1.732186 -0.013049
v 0.144979 1.887052 -0.420079
v 0.270435 1.820238 -1.422083
v -0.638499 2.100583 -1.928720
v -1.429650 1.966466 -1.576221
v -1.538299 2.024328 -0.708460
v -0.855796 2.216309 -0.193197
v -0.064645 2.350427 -0.545695
v 0.044003 2.292564 -1.413457
v -0.732190 2.389096 -1.658487
v -1.254149 2.300612 -1.425928
v -1.325829 2.338787 -0.853426
v -0.875551 2.465445 -0.513483
v -0.353592 2.553929 -0.746043
v -0.281912 2.515754 -1.318545
v -0.851188 2.651521 -1.106863
vt 0.001873 0.330160
vt 0.207740 0.001992
vt 0.587556 0.018557
vt 0.766455 0.361608
vt 0.561464 0.687652
vt 0.179576 0.672585
vt 0.402045 0.345997
vt 0.134545 0.330945
vt 0.274703 0.120013
vt 0.528356 0.135466
vt 0.641330 0.358713
vt 0.502686 0.568134
vt 0.254191 0.559604
vt 0.313564 0.464128
vt 0.242773 0.336853
vt 0.329939 0.218229
vt 0.472455 0.224618
vt 0.536672 0.354614
vt 0.457960 0.476596
vn 0.066525 0.188429 -0.979831
vn -0.805394 0.040619 -0.591346
vn -0.794145 0.202720 -0.572921
vn 0.028038 0.342098 -0.939246
vn -0.925135 0.104388 0.365006
vn -0.907055 0.262852 0.328877
vn -0.172955 0.315969 0.932872
vn -0.197782 0.462363 0.864351
vn 0.698965 0.463779 0.544387
vn 0.624401 0.601742 0.498026
vn 0.818705 0.400009 -0.411965
vn 0.737311 0.541609 -0.403772
vn -0.636893 0.640144 -0.429631
vn -0.087779 0.733231 -0.674290
vn -0.712303 0.680304 0.172657
vn -0.238598 0.813553 0.530286
vn 0.310517 0.906640 0.285627
vn 0.385927 0.866479 -0.316661
vn -0.205606 0.974421 -0.090718
s 1
g pSphere1 treeNew_A pSphere2
f 94/111/94 95/112/95 101/119/96 100/118/97
f 95/112/95 96/113/98 102/120/99 101/119/96
f 96/113/98 97/114/100 103/121/101 102/120/99
f 97/114/100 98/115/102 104/122/103 103/121/101
f 98/115/102 99/116/104 105/123/105 104/122/103
f 99/116/104 94/111/94 100/118/97 105/123/105
f 100/118/97 101/119/96 107/126/106 106/125/107
f 101/119/96 102/120/99 108/127/108 107/126/106
f 102/120/99 103/121/101 109/128/109 108/127/108
f 103/121/101 104/122/103 110/129/110 109/128/109
f 104/122/103 105/123/105 111/124/111 110/129/110
f 105/123/105 100/118/97 106/125/107 111/124/111
f 106/125/107 107/126/106 112/117/112
f 107/126/106 108/127/108 112/117/112
f 108/127/108 109/128/109 112/117/112
f 109/128/109 110/129/110 112/117/112
f 110/129/110 111/124/111 112/117/112
f 111/124/111 106/125/107 112/117/112
